<svg width="50" height="50" viewBox="0 0 50 50" fill="none" xmlns="http://www.w3.org/2000/svg">
<g id="icon">
<path id="&#208;&#154;&#208;&#190;&#208;&#189;&#209;&#130;&#209;&#131;&#209;&#128; 426" opacity="0.3" d="M8.44686 31.6629C17.3864 16.1837 28.2885 6.79827 43.601 4.19619C43.9024 4.14243 44.2122 4.16227 44.5042 4.25402C44.7963 4.34577 45.0618 4.50671 45.2782 4.72315C45.4947 4.93959 45.6556 5.20512 45.7474 5.49714C45.8391 5.78916 45.859 6.09902 45.8052 6.40036C43.2031 21.7129 33.8177 32.6149 18.3385 41.5545L8.44686 31.6629ZM7.95727 36.1191L5.48644 42.6004C5.38443 42.8678 5.36197 43.159 5.42178 43.4389C5.48159 43.7189 5.6211 43.9755 5.8235 44.1779C6.0259 44.3803 6.28253 44.5198 6.56244 44.5796C6.84235 44.6394 7.13358 44.617 7.40102 44.5149L13.8864 42.042L7.95727 36.1191ZM34.376 12.4962C33.758 12.4962 33.1538 12.6795 32.6399 13.0228C32.126 13.3662 31.7254 13.8543 31.4889 14.4253C31.2524 14.9963 31.1905 15.6247 31.3111 16.2308C31.4317 16.837 31.7293 17.3939 32.1663 17.8309C32.6034 18.2679 33.1602 18.5656 33.7664 18.6861C34.3726 18.8067 35.0009 18.7448 35.5719 18.5083C36.1429 18.2718 36.631 17.8712 36.9744 17.3573C37.3178 16.8434 37.501 16.2393 37.501 15.6212C37.501 14.7924 37.1718 13.9975 36.5857 13.4115C35.9997 12.8254 35.2048 12.4962 34.376 12.4962Z" fill="#13C2C2"/>
<path id="&#208;&#154;&#208;&#190;&#208;&#189;&#209;&#130;&#209;&#131;&#209;&#128; 427" d="M8.44627 31.6628L4.68169 27.8982C4.48964 27.7061 4.34469 27.4722 4.25819 27.2148C4.1717 26.9574 4.14601 26.6834 4.18314 26.4144C4.22028 26.1453 4.31923 25.8886 4.47223 25.6642C4.62523 25.4398 4.82813 25.2539 5.06502 25.1211L19.0692 17.269C14.9448 21.6077 11.3764 26.4427 8.44627 31.6628ZM18.3338 41.5503L22.0984 45.3148C22.2904 45.5069 22.5243 45.6518 22.7817 45.7383C23.0392 45.8248 23.3131 45.8505 23.5822 45.8134C23.8512 45.7763 24.108 45.6773 24.3323 45.5243C24.5567 45.3713 24.7426 45.1684 24.8754 44.9315L32.7275 30.9253C28.3894 35.0509 23.5543 38.62 18.3338 41.5503ZM14.6671 37.8815L26.215 26.3336C26.5376 25.9913 26.7142 25.5368 26.7072 25.0665C26.7002 24.5963 26.5103 24.1472 26.1777 23.8146C25.8452 23.482 25.3961 23.2921 24.9258 23.2852C24.4555 23.2782 24.001 23.4548 23.6588 23.7773L12.1109 35.3253L14.6671 37.8815Z" fill="#13C2C2"/>
</g>
</svg>
