<svg width="50" height="50" viewBox="0 0 50 50" fill="none" xmlns="http://www.w3.org/2000/svg">
<g id="icon">
<path id="Vector" opacity="0.3" d="M43.75 22.3317H6.24996C4.99996 22.3317 4.16663 23.1651 4.16663 24.4151C4.16663 25.6651 4.99996 26.4984 6.24996 26.4984H12.5V30.6651C12.5 37.5401 18.125 43.1651 25 43.1651C31.875 43.1651 37.5 37.5401 37.5 30.6651V26.4984H43.75C45 26.4984 45.8333 25.6651 45.8333 24.4151C45.8333 23.1651 45 22.3317 43.75 22.3317Z" fill="#13C2C2"/>
<path id="Vector_2" d="M24.1666 45.665C23.75 45.665 23.3333 45.4566 22.9166 45.2483C22.0833 44.6233 21.875 43.1649 22.5 42.3316C24.375 39.8316 25.625 37.1232 26.4583 33.9982C26.6666 32.9566 27.9166 32.1233 28.9583 32.54C29.9999 32.7483 30.8333 33.9982 30.4166 35.0399C29.5833 38.5816 27.9166 41.9149 25.8333 44.8316C25.4166 45.2483 24.7916 45.665 24.1666 45.665ZM18.125 41.0816C21.25 37.7483 22.9166 33.165 22.9166 28.5816V18.165C22.9166 16.915 23.75 16.0816 25 16.0816C26.25 16.0816 27.0833 16.915 27.0833 18.165V27.1233C27.0833 28.3733 27.9166 29.2066 29.1666 29.2066C30.4166 29.2066 31.25 28.3733 31.25 27.1233V18.165C31.25 14.6233 28.5416 11.915 25 11.915C21.4583 11.915 18.75 14.6233 18.75 18.165V28.5816C18.75 32.1233 17.5 35.6649 15 38.1649C14.1666 38.9982 14.375 40.2483 15.2083 41.0816C15.625 41.4983 16.0416 41.7066 16.6666 41.7066C17.2916 41.7066 17.7083 41.4983 18.125 41.0816ZM12.5 34.8316C13.5416 34.8316 14.5833 33.79 14.5833 32.7483V18.165C14.5833 16.915 14.7916 15.665 15.2083 14.415C15.625 13.3733 15 12.1233 13.9583 11.7067C12.9166 11.29 11.6666 11.915 11.2499 12.9566C10.6249 14.6233 10.4166 16.29 10.4166 18.165V32.7483V32.9566C10.4166 33.9982 11.4583 34.8316 12.5 34.8316ZM18.75 9.83163C19.7916 8.99829 21.0416 8.58165 22.2916 8.16499C23.3333 7.95665 23.9583 6.70663 23.7499 5.66496C23.5416 4.62329 22.2916 3.99827 21.25 4.2066C19.5833 4.62327 17.9166 5.45668 16.4583 6.49835C15.6249 7.12335 15.4166 8.5816 16.0416 9.41494C16.4583 10.0399 17.0833 10.2483 17.7083 10.2483C17.9166 10.2483 18.3333 10.04 18.75 9.83163ZM37.9166 39.415C38.9583 35.8733 39.5833 32.3316 39.5833 28.5816V18.165C39.5833 11.915 35.625 6.49835 29.7916 4.41501C28.75 3.99835 27.5 4.62329 27.0833 5.66496C26.6666 6.70663 27.2916 7.9566 28.3333 8.37327C32.5 9.8316 35.4166 13.79 35.4166 18.165V28.5816C35.4166 31.915 35 35.0399 33.9583 38.1649C33.5416 39.2066 34.1666 40.4567 35.2083 40.8733C35.4166 40.8733 35.625 40.8733 35.8333 40.8733C36.875 40.8733 37.5 40.2483 37.9166 39.415Z" fill="#13C2C2"/>
</g>
</svg>
