<svg width="350" height="560" viewBox="0 0 350 560" fill="none" xmlns="http://www.w3.org/2000/svg">
<g opacity="0.4">
<path d="M300 0L343.301 25V75L300 100L256.699 75V25L300 0Z" fill="url(#paint0_linear_47_24)"/>
<path d="M200 0L243.301 25V75L200 100L156.699 75V25L200 0Z" fill="url(#paint1_linear_47_24)"/>
<path d="M150 81L193.301 106V156L150 181L106.699 156V106L150 81Z" fill="url(#paint2_linear_47_24)"/>
<path d="M100 165L143.301 190V240L100 265L56.6987 240V190L100 165Z" fill="url(#paint3_linear_47_24)"/>
<path d="M147 248L190.301 273V323L147 348L103.699 323V273L147 248Z" fill="url(#paint4_linear_47_24)"/>
<path d="M100 329L143.301 354V404L100 429L56.6987 404V354L100 329Z" fill="url(#paint5_linear_47_24)"/>
<path d="M54 411L97.3013 436V486L54 511L10.6987 486V436L54 411Z" fill="url(#paint6_linear_47_24)"/>
<path d="M250 81L293.301 106V156L250 181L206.699 156V106L250 81Z" fill="url(#paint7_linear_47_24)"/>
<path d="M50 248L93.3013 273V323L50 348L6.69873 323V273L50 248Z" fill="url(#paint8_linear_47_24)"/>
</g>
<defs>
<linearGradient id="paint0_linear_47_24" x1="300" y1="0" x2="300" y2="100" gradientUnits="userSpaceOnUse">
<stop stop-color="#D9D9D9" stop-opacity="0.15"/>
<stop offset="0.485" stop-color="#A8A8A8" stop-opacity="0.28"/>
<stop offset="1" stop-color="#737373" stop-opacity="0.52"/>
</linearGradient>
<linearGradient id="paint1_linear_47_24" x1="200" y1="0" x2="200" y2="100" gradientUnits="userSpaceOnUse">
<stop stop-color="#D9D9D9" stop-opacity="0.15"/>
<stop offset="0.485" stop-color="#A8A8A8" stop-opacity="0.28"/>
<stop offset="1" stop-color="#737373" stop-opacity="0.52"/>
</linearGradient>
<linearGradient id="paint2_linear_47_24" x1="150" y1="81" x2="150" y2="181" gradientUnits="userSpaceOnUse">
<stop stop-color="#D9D9D9" stop-opacity="0.15"/>
<stop offset="0.485" stop-color="#A8A8A8" stop-opacity="0.28"/>
<stop offset="1" stop-color="#737373" stop-opacity="0.52"/>
</linearGradient>
<linearGradient id="paint3_linear_47_24" x1="100" y1="165" x2="100" y2="265" gradientUnits="userSpaceOnUse">
<stop stop-color="#D9D9D9" stop-opacity="0.15"/>
<stop offset="0.485" stop-color="#A8A8A8" stop-opacity="0.28"/>
<stop offset="1" stop-color="#737373" stop-opacity="0.52"/>
</linearGradient>
<linearGradient id="paint4_linear_47_24" x1="147" y1="248" x2="147" y2="348" gradientUnits="userSpaceOnUse">
<stop stop-color="#D9D9D9" stop-opacity="0.15"/>
<stop offset="0.485" stop-color="#A8A8A8" stop-opacity="0.28"/>
<stop offset="1" stop-color="#737373" stop-opacity="0.52"/>
</linearGradient>
<linearGradient id="paint5_linear_47_24" x1="100" y1="329" x2="100" y2="429" gradientUnits="userSpaceOnUse">
<stop stop-color="#D9D9D9" stop-opacity="0.15"/>
<stop offset="0.485" stop-color="#A8A8A8" stop-opacity="0.28"/>
<stop offset="1" stop-color="#737373" stop-opacity="0.52"/>
</linearGradient>
<linearGradient id="paint6_linear_47_24" x1="54" y1="411" x2="54" y2="511" gradientUnits="userSpaceOnUse">
<stop stop-color="#D9D9D9" stop-opacity="0.15"/>
<stop offset="0.485" stop-color="#A8A8A8" stop-opacity="0.28"/>
<stop offset="1" stop-color="#737373" stop-opacity="0.52"/>
</linearGradient>
<linearGradient id="paint7_linear_47_24" x1="250" y1="81" x2="250" y2="181" gradientUnits="userSpaceOnUse">
<stop stop-color="#D9D9D9" stop-opacity="0.15"/>
<stop offset="0.485" stop-color="#A8A8A8" stop-opacity="0.28"/>
<stop offset="1" stop-color="#737373" stop-opacity="0.52"/>
</linearGradient>
<linearGradient id="paint8_linear_47_24" x1="50" y1="248" x2="50" y2="348" gradientUnits="userSpaceOnUse">
<stop stop-color="#D9D9D9" stop-opacity="0.15"/>
<stop offset="0.485" stop-color="#A8A8A8" stop-opacity="0.28"/>
<stop offset="1" stop-color="#737373" stop-opacity="0.52"/>
</linearGradient>
</defs>
</svg>
